<svg width="13" height="8" viewBox="0 0 13 8" fill="none" xmlns="http://www.w3.org/2000/svg">
<path d="M2.28682 2.66089C1.5503 2.66089 0.947693 3.2635 0.947693 4.00001C0.947693 4.73653 1.5503 5.33914 2.28682 5.33914C3.02334 5.33914 3.62594 4.73653 3.62594 4.00001C3.62594 3.2635 3.02334 2.66089 2.28682 2.66089Z" fill="#666666"/>
<path d="M11.6607 2.66089C10.9241 2.66089 10.3215 3.2635 10.3215 4.00001C10.3215 4.73653 10.9241 5.33914 11.6607 5.33914C12.3972 5.33914 12.9998 4.73653 12.9998 4.00001C12.9998 3.2635 12.3972 2.66089 11.6607 2.66089Z" fill="#666666"/>
<path d="M6.97383 2.66089C6.23731 2.66089 5.6347 3.2635 5.6347 4.00001C5.6347 4.73653 6.23731 5.33914 6.97383 5.33914C7.71035 5.33914 8.31296 4.73653 8.31296 4.00001C8.31296 3.2635 7.71035 2.66089 6.97383 2.66089Z" fill="#666666"/>
</svg>
